<?xml version="1.0" encoding="utf-8"?>
<!-- Generator: Adobe Illustrator 16.0.0, SVG Export Plug-In . SVG Version: 6.00 Build 0)  -->
<!DOCTYPE svg PUBLIC "-//W3C//DTD SVG 1.1//EN" "http://www.w3.org/Graphics/SVG/1.1/DTD/svg11.dtd">
<svg version="1.1" xmlns="http://www.w3.org/2000/svg" xmlns:xlink="http://www.w3.org/1999/xlink" x="0px" y="0px"
	 width="292.293px" height="291.376px" viewBox="0 0 292.293 291.376" enable-background="new 0 0 292.293 291.376"
	 xml:space="preserve">
<g id="bg_circle">
	<circle fill="#333333" cx="147.097" cy="145.196" r="145.197"/>
</g>
<g id="Layer_7">
</g>
<g id="Layer_9">
</g>
<g id="Layer_3">
	<g>
		<defs>
			<circle id="SVGID_1_" cx="146.322" cy="145.056" r="146.322"/>
		</defs>
		<clipPath id="SVGID_2_">
			<use xlink:href="#SVGID_1_"  overflow="visible"/>
		</clipPath>
		<polygon clip-path="url(#SVGID_2_)" fill="#9B583B" points="57.264,284.918 151.831,303.914 247.564,266.428 231.542,254.778 
			243.444,225.906 221.473,204.125 235.663,161.578 207.742,127.135 75.917,102.821 65.389,118.524 78.205,163.604 66.988,209.013 
			65.099,239.622 74.543,256.807 71.338,268.455 		"/>
		<path clip-path="url(#SVGID_2_)" fill="#09647A" d="M125.206,231.407c0,0,20.419,24.513,43.023-0.623
			c0,0,51.628,9.689,60.593,15.638c6.271,4.162,6.63,15.521,6.63,15.521l-47.983,33.613l-74.794-1.014l-39.805-22.91l-2.589-24.956
			C70.281,246.676,121.892,231.661,125.206,231.407z"/>
	</g>
	<g id="Layer_11">
		<path fill="#C68977" d="M130.05,206.567c0,0-0.031,22.008-4.844,24.793c-2.591,1.501,9.177,10.827,21.89,10.724
			c10.903-0.089,21.133-11.358,21.133-11.358s-5.255-4.158-4.495-24.158C163.734,203.567,130.05,206.567,130.05,206.567z"/>
	</g>
	<g id="Layer_1">
		<path fill="#F4D3C3" d="M72.775,97.506c0,0-4.267,111.507,73.737,111.507c78.131-3.112,74.206-98.464,74.206-111.761
			L191.212,71.04L72.306,97.252"/>
		<ellipse fill="#0F1828" cx="175.542" cy="130.445" rx="4.179" ry="4.796"/>
		<path fill="#F4D3C3" d="M155.809,133.526c0,0,29.68-32.325,41.374-1.154"/>
		<path fill="#C68977" d="M197.183,132.3c0,0-18.507-35.931-41.374,1.226C160.04,129.786,197.183,132.3,197.183,132.3"/>
	</g>
	<g id="Layer_5">
	</g>
	<g id="Layer_4">
		<path fill="#FFFFFF" d="M163.079,141.691c-6.152-4.076-7.27-8.165-7.27-8.165s16.925-16.503,32.433-8.66
			c0.726,0.368,3.793,2.461,8.941,7.506c-0.001,0-3.581,9.199-13.854,12.082C174.914,146.815,169.23,145.765,163.079,141.691z"/>
		<path fill="#FFFFFF" d="M162.721,173.61"/>
		<path fill="none" stroke="#C68977" stroke-miterlimit="10" d="M168.229,176.459"/>
		<path fill="#C68977" d="M155.972,163.46c0,0-4.119,5.577-10.698,5.977c-6.578,0.398-11.025-2.095-10.918-6.209
			c0.107-4.116,8.421-27.073,8.421-27.073s-3.358,26.692,0.19,28.592C146.514,166.646,155.972,163.46,155.972,163.46z"/>
		<path fill="#C68977" d="M302.331,154.236"/>
		<path fill="none" stroke="#C68977" stroke-width="2" stroke-linecap="round" stroke-miterlimit="10" d="M130.05,180.259
			c0,0,14.8,18.551,32.316-0.098"/>
		<path fill="#C68977" d="M212.024,159.475c0,0,10.38-2.374,11.594-8.365c1.214-5.991-5.796-14.956-5.796-14.956"/>
		<path fill="#C68977" d="M91.986,132.3c0,0,18.508-35.931,41.375,1.226C129.13,129.786,91.986,132.3,91.986,132.3"/>
		<path fill="#FFFFFF" d="M126.09,141.691c6.153-4.076,7.271-8.165,7.271-8.165s-16.926-16.503-32.433-8.66
			c-0.727,0.368-3.793,2.461-8.942,7.506c0.001,0,3.582,9.199,13.854,12.082C114.258,146.815,119.94,145.765,126.09,141.691z"/>
		<path fill="#2F5BB2" d="M124.479,127.078c0,0-1.67,14.239-12.26,13.133c-6.69-0.495-10.611-5.965-10.517-15.628
			C102.063,124.455,111.634,118.943,124.479,127.078z"/>
	</g>
	<g>
		<path fill="#9B583B" d="M158.492,110.254c0.001,0,0.629-0.314,1.833-0.822c1.188-0.505,2.908-1.178,5.013-1.877
			c4.196-1.411,10.023-2.825,16.036-2.926c1.5-0.054,3.006,0.034,4.491,0.153c0.741,0.065,1.476,0.177,2.201,0.286
			c0.716,0.161,1.434,0.283,2.124,0.474c1.375,0.399,2.686,0.88,3.853,1.496c1.182,0.582,2.233,1.264,3.141,1.96
			c0.448,0.359,0.885,0.689,1.265,1.045c0.369,0.366,0.719,0.713,1.047,1.039c0.63,0.674,1.106,1.327,1.507,1.843
			c0.721,1.106,1.09,1.746,1.09,1.746c0.028,0.048,0.011,0.11-0.037,0.137c-0.039,0.022-0.086,0.016-0.117-0.012l-0.007-0.006
			c0,0-0.556-0.503-1.455-1.398c-0.506-0.395-1.071-0.916-1.767-1.444c-0.353-0.256-0.729-0.528-1.125-0.814
			c-0.4-0.278-0.854-0.521-1.298-0.811c-0.438-0.301-0.954-0.519-1.456-0.787c-0.492-0.287-1.047-0.5-1.601-0.742
			c-1.115-0.471-2.327-0.879-3.6-1.245c-0.631-0.198-1.295-0.337-1.956-0.514c-0.676-0.116-1.352-0.287-2.047-0.394
			c-1.39-0.219-2.821-0.375-4.263-0.411c-5.784-0.215-11.583,0.926-15.827,1.997c-2.127,0.549-3.878,1.101-5.09,1.521
			c-1.2,0.414-1.914,0.702-1.913,0.702c-0.05,0.021-0.106-0.004-0.126-0.053c-0.019-0.047,0.001-0.101,0.046-0.123L158.492,110.254z
			"/>
	</g>
	<g>
		<path fill="#9B583B" d="M133.106,111.25c0,0-0.176-0.074-0.506-0.214c-0.32-0.126-0.789-0.313-1.385-0.549
			c-1.199-0.458-2.931-1.066-5.04-1.682c-4.208-1.206-9.967-2.531-15.755-2.5c-1.443-0.01-2.878,0.1-4.274,0.275
			c-0.698,0.085-1.379,0.234-2.059,0.329c-0.667,0.156-1.334,0.273-1.972,0.452c-1.284,0.325-2.508,0.694-3.638,1.129
			c-0.562,0.225-1.123,0.419-1.624,0.691c-0.511,0.252-1.034,0.453-1.48,0.74c-0.453,0.276-0.915,0.504-1.323,0.769
			c-0.405,0.274-0.789,0.534-1.15,0.778c-0.713,0.505-1.294,1.009-1.812,1.387c-0.927,0.866-1.499,1.351-1.499,1.351l-0.007,0.006
			c-0.042,0.036-0.105,0.03-0.142-0.012c-0.029-0.034-0.031-0.082-0.009-0.118c0,0,0.389-0.627,1.145-1.71
			c0.417-0.503,0.914-1.14,1.565-1.794c0.339-0.315,0.7-0.651,1.08-1.005c0.39-0.344,0.838-0.66,1.297-1.005
			c0.93-0.667,2.002-1.315,3.202-1.859c1.186-0.579,2.511-1.018,3.898-1.373c0.696-0.169,1.417-0.268,2.138-0.406
			c0.727-0.086,1.465-0.174,2.208-0.216c1.487-0.071,2.996-0.112,4.493-0.01c6.007,0.292,11.786,1.892,15.935,3.435
			c2.083,0.766,3.779,1.494,4.951,2.036c0.583,0.278,1.041,0.497,1.353,0.646c0.295,0.152,0.452,0.233,0.452,0.233l0.038,0.02
			c0.048,0.025,0.066,0.083,0.042,0.131C133.207,111.251,133.152,111.27,133.106,111.25z"/>
	</g>
	<g id="Layer_2">
		<path fill="#C17256" d="M76.105,191.845c-7.218,9.497,22.034,26.289,9.118,34.317c-7.565,4.701-20.296,0.023-10.637,14.938
			c14.762,22.794,7.792,24.729-5.306,33.562c-11.409,7.692-16.158,7.692-14.258,6.838c2.725-1.226,10.283-14.112,5.509-24.186
			c-4.02-8.485-22.864-27.86,2.406-40.776c11.396-5.826-12.411-14.436-13.93-25.579c-1.52-11.145,9.876-11.144,14.436-24.313
			c4.559-13.17-17.728-33.722-5.381-70.343c8.596-25.497,21.844-42.104,36.622-52.235c14.779-10.131,69.159-26.339,95.39,1.52
			c25.086,1.14,30.677,23.173,30.677,23.173s25.398,81.243,16.744,102.95c-6.978,17.502-10.527,22.284-7.323,32.415
			c3.202,10.131,30.371,11.589,13.276,41.474c-3.819,8.612-5.953,12.724-0.918,16.777c5.006,3.568,5.543,4.068,5.035,4.052
			c-0.508-0.016-28.562,1.015-30.391-8.103c-1.832-9.117,13.928-20.207,11.649-29.124c-2.279-8.917-19.754-10.511-19.754-22.161
			c0-11.649,26.595-39.384,21.103-49.008c-5.494-9.624-53.409-36.087-48.456-79.015c0,0-68.041,40.71-85.981,51.404
			c-16.12,9.608-12.41,22.675-10.257,33.439C87.629,174.624,83.323,182.348,76.105,191.845z"/>
	</g>
	<path fill="#2F5BB2" d="M164.691,127.078c0,0,1.669,14.239,12.259,13.133c6.69-0.495,10.612-5.965,10.517-15.628
		C187.109,124.455,177.537,118.943,164.691,127.078z"/>
	<path fill="none" stroke="#C17256" stroke-miterlimit="10" d="M197.183,132.372"/>
	<path fill="none" stroke="#C17256" stroke-miterlimit="10" d="M155.809,133.526"/>
	<path fill="none" stroke="#C17256" stroke-miterlimit="10" d="M200.222,121.735"/>
	<path display="none" fill="none" stroke="#C17256" stroke-miterlimit="10" d="M212.535,155.438"/>
	<line fill="none" x1="177.156" y1="132.202" x2="177.156" y2="132.202"/>
</g>
<g id="Layer_6">
	<path fill="#FFFFFF" d="M181.715,127.951c0-0.984,1.637-1.782,3.656-1.782c2.021,0,3.657,0.798,3.657,1.782
		c0,0.985-1.636,0.547-3.657,0.547C183.352,128.498,181.715,128.936,181.715,127.951z"/>
	<path fill="#FFFFFF" d="M117.893,130.99c0-0.983,1.637-1.782,3.656-1.782s3.657,0.799,3.657,1.782c0,0.985-1.637,0.548-3.657,0.548
		S117.893,131.975,117.893,130.99z"/>
</g>
<g id="Layer_7_copy">
</g>
</svg>
