<?xml version="1.0" encoding="utf-8"?>
<!-- Generator: Adobe Illustrator 16.0.0, SVG Export Plug-In . SVG Version: 6.00 Build 0)  -->
<!DOCTYPE svg PUBLIC "-//W3C//DTD SVG 1.1//EN" "http://www.w3.org/Graphics/SVG/1.1/DTD/svg11.dtd">
<svg version="1.1" xmlns="http://www.w3.org/2000/svg" xmlns:xlink="http://www.w3.org/1999/xlink" x="0px" y="0px" width="1920px"
	 height="1080px" viewBox="0 0 1920 1080" enable-background="new 0 0 1920 1080" xml:space="preserve">
<g id="Layer_1" display="none">
	<rect display="inline" fill="#816BAA" width="1920" height="1080"/>
</g>
<g id="Layer_4">
	<rect x="-919" y="835" fill="#CCCCCC" width="61" height="426"/>
	<rect x="-858" y="881" fill="#CCCCCC" width="60" height="380"/>
	<rect x="-798" y="835" fill="#CCCCCC" width="60" height="426"/>
	<rect x="-770" y="881" fill="#CCCCCC" width="60" height="380"/>
	<rect x="-645" y="735" fill="#FFFFFF" width="60" height="525"/>
	<rect x="-585" y="781" fill="#FFFFFF" width="60" height="478"/>
	<rect x="-237" y="729" fill="#CCCCCC" width="60" height="525"/>
	<rect x="-357" y="729" fill="#CCCCCC" width="60" height="525"/>
	<rect x="-297" y="775" fill="#CCCCCC" width="60" height="480"/>
	<rect x="79" y="779" fill="#CCCCCC" width="60" height="526"/>
	<rect x="-41" y="779" fill="#CCCCCC" width="60" height="526"/>
	<rect x="230" y="765" fill="#CCCCCC" width="60" height="425"/>
	<rect x="290" y="811" fill="#CCCCCC" width="60" height="378"/>
	<rect x="350" y="765" fill="#CCCCCC" width="60" height="425"/>
	<rect x="1096" y="785" fill="#CCCCCC" width="60" height="526"/>
	<rect x="976" y="785" fill="#CCCCCC" width="60" height="526"/>
	<rect x="858" y="785" fill="#CCCCCC" width="60" height="526"/>
	<rect x="738" y="785" fill="#CCCCCC" width="60" height="526"/>
	<rect x="618" y="785" fill="#CCCCCC" width="60" height="526"/>
	<polyline fill="#CCCCCC" points="738,1311 678,1311 678,830 738,830 	"/>
	<rect x="498" y="785" fill="#CCCCCC" width="60" height="526"/>
	<rect x="1216" y="784" fill="#CCCCCC" width="60" height="527"/>
	<rect y="828" fill="#CCCCCC" width="2025" height="481"/>
	<rect x="1336" y="784" fill="#CCCCCC" width="60" height="527"/>
	<rect x="1096" y="1091" fill="#E6E6E6" width="60" height="40"/>
</g>
<g id="towers">
	<rect x="1804" y="726" fill="#CCCCCC" width="221" height="562"/>
	<g>
		<g>
			<rect x="-766.5" y="728.5" fill="#EDEDED" stroke="#EDEDED" stroke-miterlimit="10" width="240" height="533"/>
			<polygon fill="#EDEDED" stroke="#EDEDED" stroke-miterlimit="10" points="-645.89,525.718 -585.89,627.109 -525.89,728.5 
				-645.89,728.5 -765.89,728.5 -705.89,627.109 			"/>
		</g>
		
			<line fill="#EDEDED" stroke="#EDEDED" stroke-width="4" stroke-linecap="round" stroke-miterlimit="10" x1="-646" y1="728" x2="-646" y2="434"/>
		<polygon fill="#EDEDED" stroke="#EDEDED" stroke-width="4" stroke-linecap="round" stroke-miterlimit="10" points="-646,439 
			-687,439 -676.083,449.258 -687.5,460 -646,460 		"/>
	</g>
	<g>
		
			<line fill="#EDEDED" stroke="#EDEDED" stroke-width="4" stroke-linecap="round" stroke-miterlimit="10" x1="319" y1="490" x2="319" y2="406"/>
		<polygon fill="#EDEDED" stroke="#EDEDED" stroke-width="4" stroke-linecap="round" stroke-miterlimit="10" points="319,411 
			278,411 288.917,421.258 277.5,432 319,432 		"/>
	</g>
	<g>
		<g>
			<polyline fill="#EDEDED" points="1819.951,666 1796.515,642 1722.992,491.999 1638.134,318 1554.498,491.999 1483.113,642 
				1456,666 1456,1291 1820,1291 1820,666 			"/>
			<path fill="#EDEDED" d="M1638,666"/>
		</g>
		
			<line fill="#EDEDED" stroke="#EDEDED" stroke-width="4" stroke-linecap="round" stroke-miterlimit="10" x1="1638" y1="310" x2="1638" y2="250"/>
		<path fill="#EDEDED" d="M1642,326c0,1.657-1.343,3-3,3h-2c-1.657,0-3-1.343-3-3v-20c0-1.657,1.343-3,3-3h2c1.657,0,3,1.343,3,3
			V326z"/>
	</g>
	<rect x="1881" y="666" fill="#CCCCCC" width="144" height="100"/>
	<rect x="1911" y="606" fill="#CCCCCC" width="114" height="160"/>
	<rect x="1941" y="546" fill="#CCCCCC" width="84" height="227"/>
	<rect x="1970" y="486" fill="#CCCCCC" width="55" height="280"/>
	<rect x="2000" y="426" fill="#CCCCCC" width="25" height="343"/>
	<g>
		<g>
			<polyline fill="#EDEDED" stroke="#EDEDED" stroke-miterlimit="10" points="439.11,721.5 379.104,616.771 319.097,512.045 
				259.083,616.771 199.773,721.5 199.5,722 199.5,1291.5 439.5,1291.5 439.5,722 			"/>
			<path fill="#EDEDED" stroke="#EDEDED" stroke-miterlimit="10" d="M319,721.5"/>
		</g>
		<path fill="#EDEDED" stroke="#EDEDED" stroke-width="4" stroke-linecap="round" stroke-miterlimit="10" d="M319,417"/>
		<path fill="#EDEDED" stroke="#EDEDED" stroke-width="4" stroke-linecap="round" stroke-miterlimit="10" d="M319,721"/>
	</g>
	<path fill="#B3B3B3" d="M1496,461.75"/>
	<path fill="#EDEDED" d="M1546,455.965c0,1.277-1.035,1.035-2.313,1.035h-48.375c-1.277,0-2.313,0.242-2.313-1.035v-1.652
		c0-0.543,0.188-1.042,0.5-1.437c0.424-0.534,1.078-0.875,1.813-0.875h48.375c1.277,0,2.313,1.035,2.313,2.313V455.965z"/>
	<polygon fill="#EDEDED" points="1498,446 1541.334,446 1545.625,453.051 1493.5,452.875 	"/>
	<rect x="1497" y="454" fill="#EDEDED" width="45" height="171"/>
	<path fill="#EDEDED" d="M1642,347.167c0,1.013-0.82,1.833-1.833,1.833h-4.334c-1.013,0-1.833-0.821-1.833-1.833v-0.333
		c0-1.013,0.82-1.833,1.833-1.833h4.334c1.013,0,1.833,0.821,1.833,1.833V347.167z"/>
	<path fill="#EDEDED" stroke="#EDEDED" stroke-miterlimit="10" d="M324.5,491.5c0-1.657-1.343-3-3-3h-5c-1.657,0-3,1.343-3,3v35
		c0,1.657,1.343,3,3,3h5c1.657,0,3-1.343,3-3"/>
	<path fill="#EDEDED" stroke="#EDEDED" stroke-miterlimit="10" d="M-640.5,513.5c0-1.657-1.343-3-3-3h-5c-1.657,0-3,1.343-3,3v35
		c0,1.657,1.343,3,3,3h5c1.657,0,3-1.343,3-3V513.5z"/>
	<path fill="#EDEDED" d="M1642,257.25c0,0.966-0.783,1.75-1.75,1.75h-4.5c-0.967,0-1.75-0.784-1.75-1.75v-0.5
		c0-0.966,0.783-1.75,1.75-1.75h4.5c0.967,0,1.75,0.784,1.75,1.75V257.25z"/>
</g>
<g id="back-windows">
	<g>
		<rect x="860" y="986" fill="#B3B3B3" width="180" height="172"/>
		<path fill="#B3B3B3" d="M860,986.667c0-49.705,40.295-90,90-90s90,40.295,90,90"/>
	</g>
	<g>
		<rect x="239" y="764" fill="#CCCCCC" width="20" height="44"/>
		<path fill="#CCCCCC" d="M239,764.346c0-12.525,4.454-22.679,9.949-22.679s9.949,10.153,9.949,22.679"/>
	</g>
	<g>
		<rect x="378" y="764" fill="#CCCCCC" width="20" height="44"/>
		<path fill="#CCCCCC" d="M378,764.346c0-12.525,4.454-22.679,9.949-22.679c5.494,0,9.948,10.153,9.948,22.679"/>
	</g>
	<g>
		<rect x="309" y="764" fill="#CCCCCC" width="20" height="44"/>
		<path fill="#CCCCCC" d="M309,764.346c0-12.525,4.454-22.679,9.949-22.679c5.494,0,9.948,10.153,9.948,22.679"/>
	</g>
	<g>
		<rect x="1949" y="816" fill="#B3B3B3" width="20" height="44"/>
		<path fill="#B3B3B3" d="M1949,816.346c0-12.525,4.454-22.679,9.949-22.679c5.494,0,9.948,10.153,9.948,22.679"/>
	</g>
	<g>
		<rect x="-727" y="778" fill="#CCCCCC" width="20" height="44"/>
		<path fill="#CCCCCC" d="M-727,778.346c0-12.525,4.454-22.679,9.949-22.679s9.949,10.153,9.949,22.679"/>
	</g>
	<g>
		<rect x="-587" y="778" fill="#CCCCCC" width="20" height="44"/>
		<path fill="#CCCCCC" d="M-587,778.346c0-12.525,4.454-22.679,9.949-22.679c5.494,0,9.948,10.153,9.948,22.679"/>
	</g>
	<g>
		<rect x="-657" y="778" fill="#CCCCCC" width="20" height="44"/>
		<path fill="#CCCCCC" d="M-657,778.346c0-12.525,4.454-22.679,9.949-22.679c5.494,0,9.948,10.153,9.948,22.679"/>
	</g>
	<rect x="1539" y="699" fill="#CCCCCC" width="15" height="40"/>
	<rect x="1624" y="788" fill="#CCCCCC" width="30" height="40"/>
	<rect x="1735" y="788" fill="#CCCCCC" width="30" height="40"/>
	<rect x="1511" y="788" fill="#CCCCCC" width="30" height="40"/>
	<rect x="1559" y="699" fill="#CCCCCC" width="15" height="40"/>
	<rect x="1702" y="699" fill="#CCCCCC" width="15" height="40"/>
	<rect x="1722" y="699" fill="#CCCCCC" width="15" height="40"/>
</g>
<g id="front-castles" display="none">
	<rect y="928" display="inline" fill="#E6E6E6" width="61" height="152"/>
	<rect x="61" y="882" display="inline" fill="#E6E6E6" width="60" height="198"/>
	<rect x="121" y="928" display="inline" fill="#E6E6E6" width="60" height="152"/>
	<rect x="181" y="882" display="inline" fill="#E6E6E6" width="60" height="198"/>
	<rect x="241" y="928" display="inline" fill="#E6E6E6" width="60" height="152"/>
	<rect x="301" y="882" display="inline" fill="#E6E6E6" width="60" height="198"/>
	<rect x="361" y="928" display="inline" fill="#E6E6E6" width="60" height="152"/>
	<rect x="421" y="832" display="inline" fill="#FFFFFF" width="60" height="248"/>
	<rect x="481" y="878" display="inline" fill="#FFFFFF" width="60" height="202"/>
	<rect x="541" y="832" display="inline" fill="#FFFFFF" width="60" height="248"/>
	<rect x="601" y="878" display="inline" fill="#FFFFFF" width="60" height="202"/>
	<rect x="661" y="832" display="inline" fill="#FFFFFF" width="60" height="248"/>
	<rect x="721" y="878" display="inline" fill="#FFFFFF" width="60" height="202"/>
	<rect x="781" y="832" display="inline" fill="#FFFFFF" width="60" height="248"/>
	<rect x="841" y="928" display="inline" fill="#E6E6E6" width="60" height="153"/>
	<rect x="901" y="882" display="inline" fill="#E6E6E6" width="60" height="198"/>
	<rect x="961" y="928" display="inline" fill="#E6E6E6" width="60" height="153"/>
	<rect x="1021" y="882" display="inline" fill="#E6E6E6" width="60" height="198"/>
	<rect x="1081" y="928" display="inline" fill="#E6E6E6" width="60" height="153"/>
	<rect x="1141" y="882" display="inline" fill="#E6E6E6" width="60" height="198"/>
	<rect x="1201" y="928" display="inline" fill="#E6E6E6" width="60" height="153"/>
	<rect x="1261" y="740" display="inline" fill="#FFFFFF" width="60" height="340"/>
	<rect x="1321" y="792" display="inline" fill="#FFFFFF" width="60" height="289"/>
	<rect x="1381" y="740" display="inline" fill="#FFFFFF" width="60" height="340"/>
	<rect x="1441" y="792" display="inline" fill="#FFFFFF" width="60" height="289"/>
	<rect x="1501" y="740" display="inline" fill="#FFFFFF" width="60" height="340"/>
	<rect x="1561" y="928" display="inline" fill="#E6E6E6" width="60" height="153"/>
	<rect x="1621" y="882" display="inline" fill="#E6E6E6" width="60" height="198"/>
	<rect x="1681" y="928" display="inline" fill="#E6E6E6" width="60" height="153"/>
	<rect x="1741" y="882" display="inline" fill="#E6E6E6" width="60" height="198"/>
	<rect x="1861" y="882" display="inline" fill="#E6E6E6" width="60" height="198"/>
	<rect x="1801" y="928" display="inline" fill="#E6E6E6" width="60" height="153"/>
	
		<line display="inline" fill="none" stroke="#CCCCCC" stroke-width="3" stroke-miterlimit="10" x1="328.5" y1="913" x2="328.5" y2="968"/>
	
		<line display="inline" fill="none" stroke="#CCCCCC" stroke-width="3" stroke-miterlimit="10" x1="210.5" y1="913" x2="210.5" y2="968"/>
	
		<line display="inline" fill="none" stroke="#CCCCCC" stroke-width="3" stroke-miterlimit="10" x1="91.5" y1="913" x2="91.5" y2="968"/>
	
		<line display="inline" fill="none" stroke="#CCCCCC" stroke-width="3" stroke-miterlimit="10" x1="1170.5" y1="913" x2="1170.5" y2="968"/>
	
		<line display="inline" fill="none" stroke="#CCCCCC" stroke-width="3" stroke-miterlimit="10" x1="1051.5" y1="913" x2="1051.5" y2="968"/>
	
		<line display="inline" fill="none" stroke="#CCCCCC" stroke-width="3" stroke-miterlimit="10" x1="931.5" y1="913" x2="931.5" y2="968"/>
	
		<line display="inline" fill="none" stroke="#CCCCCC" stroke-width="3" stroke-miterlimit="10" x1="1891.5" y1="913" x2="1891.5" y2="968"/>
	
		<line display="inline" fill="none" stroke="#CCCCCC" stroke-width="3" stroke-miterlimit="10" x1="1772.5" y1="913" x2="1772.5" y2="968"/>
	
		<line display="inline" fill="none" stroke="#CCCCCC" stroke-width="3" stroke-miterlimit="10" x1="1652.5" y1="913" x2="1652.5" y2="968"/>
	
		<line display="inline" fill="none" stroke="#E6E6E6" stroke-width="3" stroke-miterlimit="10" x1="1531.5" y1="764" x2="1531.5" y2="819"/>
	
		<line display="inline" fill="none" stroke="#E6E6E6" stroke-width="3" stroke-miterlimit="10" x1="1412.5" y1="764" x2="1412.5" y2="819"/>
	
		<line display="inline" fill="none" stroke="#E6E6E6" stroke-width="3" stroke-miterlimit="10" x1="1292.5" y1="764" x2="1292.5" y2="819"/>
	
		<line display="inline" fill="none" stroke="#E6E6E6" stroke-width="3" stroke-miterlimit="10" x1="690.5" y1="862" x2="690.5" y2="917"/>
	
		<line display="inline" fill="none" stroke="#E6E6E6" stroke-width="3" stroke-miterlimit="10" x1="811.5" y1="862" x2="811.5" y2="917"/>
	
		<line display="inline" fill="none" stroke="#E6E6E6" stroke-width="3" stroke-miterlimit="10" x1="571.5" y1="862" x2="571.5" y2="917"/>
	
		<line display="inline" fill="none" stroke="#E6E6E6" stroke-width="3" stroke-miterlimit="10" x1="451.5" y1="862" x2="451.5" y2="917"/>
</g>
<g id="Layer_6">
	<rect x="440" y="1052" fill="#EDEDED" width="1585" height="481"/>
	<rect x="860" y="1007" fill="#EDEDED" width="60" height="526"/>
	<rect x="740" y="1007" fill="#EDEDED" width="60" height="526"/>
	<rect x="620" y="1007" fill="#EDEDED" width="60" height="526"/>
	<rect x="500" y="1007" fill="#EDEDED" width="60" height="526"/>
	<rect x="80" y="987" fill="#EDEDED" width="60" height="526"/>
	<rect y="1032" fill="#EDEDED" width="200" height="481"/>
	<rect x="-41" y="987" fill="#EDEDED" width="60" height="481"/>
	<rect x="980" y="1007" fill="#EDEDED" width="60" height="526"/>
	<rect x="1099" y="1007" fill="#EDEDED" width="60" height="526"/>
	<rect x="1218" y="1007" fill="#EDEDED" width="60" height="526"/>
	<rect x="1338" y="1007" fill="#EDEDED" width="60" height="526"/>
	<rect x="1999" y="1007" fill="#EDEDED" width="26" height="526"/>
	<rect x="1880" y="1007" fill="#EDEDED" width="60" height="526"/>
</g>
</svg>
